<?xml version="1.0" ?>
<svg viewBox="0 0 32 32" xmlns="http://www.w3.org/2000/svg">
    <defs>
        <style>
            .cls-1 {
                fill: #b3bfc6;
            }

            .cls-2 {
                fill: #fff;
            }

            .cls-3 {
                fill: #9ac3f4;
            }

            .cls-4 {
                fill: #2f7ded;
            }
        </style>
    </defs>
    <title />
    <g id="Compass">
        <path class="cls-1" d="M16,8a3,3,0,1,1,3-3A3,3,0,0,1,16,8Zm0-4a1,1,0,1,0,1,1A1,1,0,0,0,16,4Z" />
        <circle class="cls-2" cx="16" cy="18" r="12" />
        <path class="cls-2"
            d="M21.92,13.39l-3,7a.94.94,0,0,1-.53.53l-7,3A1,1,0,0,1,11,24a1,1,0,0,1-.92-1.39l3-7a.94.94,0,0,1,.53-.53l7-3a1,1,0,0,1,1.31,1.31Z" />
        <path class="cls-3"
            d="M21.92,13.39l-3,7a1,1,0,0,1-.21.32l-5.42-5.42a1,1,0,0,1,.32-.21l7-3a1,1,0,0,1,1.31,1.31Z" />
        <path class="cls-4"
            d="M18.68,6.31A2.88,2.88,0,0,0,19,5a3,3,0,0,0-6,0,2.88,2.88,0,0,0,.32,1.31,12,12,0,1,0,5.36,0ZM16,4a1,1,0,1,1-1,1A1,1,0,0,1,16,4Zm0,24A10,10,0,1,1,26,18,10,10,0,0,1,16,28Z" />
        <path class="cls-4"
            d="M21.92,12.62h0a1.25,1.25,0,0,0-.08-.12.91.91,0,0,0-.13-.19,1.19,1.19,0,0,0-.23-.16l-.09-.06h0a.94.94,0,0,0-.28-.06L21,12h-.07a1.14,1.14,0,0,0-.32.07h0l-7,3a1,1,0,0,0-.57.55l-3,7h0a.76.76,0,0,0-.06.27S10,23,10,23s0,.08,0,.11a.76.76,0,0,0,.06.27h0a.92.92,0,0,0,.19.28s0,0,.06.06a1.34,1.34,0,0,0,.23.16l0,0h0A1,1,0,0,0,11,24h0a1,1,0,0,0,.35-.07h0l7-3h0a1.05,1.05,0,0,0,.55-.55l3-7h0a.76.76,0,0,0,.06-.27S22,13,22,13s0-.08,0-.11A.76.76,0,0,0,21.92,12.62Zm-9,8.48,1.44-3.35,1.91,1.91Zm4.76-2.85-1.91-1.91L19.1,14.9Z" />
    </g>
</svg>